<svg width="43" height="43" viewBox="0 0 43 43" fill="none" xmlns="http://www.w3.org/2000/svg">
<path fill-rule="evenodd" clip-rule="evenodd" d="M21.4774 42.9742C33.3444 42.9742 42.9645 33.3541 42.9645 21.4871C42.9645 9.62011 33.3444 0 21.4774 0C9.61034 0 -0.00976562 9.62011 -0.00976562 21.4871C-0.00976562 33.3541 9.61034 42.9742 21.4774 42.9742ZM27.492 8.44575L26.1966 8.33755H23.9108C23.8799 8.34377 23.8493 8.35063 23.8187 8.35748C23.7555 8.37163 23.6925 8.38572 23.6288 8.39394C22.4471 8.54556 21.3582 8.92807 20.4408 9.70907C19.0884 10.865 18.5245 12.395 18.4445 14.1139C18.4038 14.9967 18.4056 15.8818 18.4075 16.7667C18.4084 17.1557 18.4092 17.5448 18.4064 17.9336V18.2788H14.2507V23.1332H18.4049V35.4883H23.4422V23.1225H27.5872C27.7259 22.051 27.8637 20.9858 28.0026 19.9113C28.0735 19.3629 28.1447 18.8121 28.2166 18.2567H23.4353C23.4353 17.89 23.4323 17.5262 23.4292 17.1644C23.4225 16.3529 23.4158 15.5517 23.4437 14.7517C23.4848 13.5699 24.1401 12.9451 25.3288 12.8978C25.9765 12.8721 26.625 12.8652 27.2737 12.8584C27.5461 12.8555 27.8185 12.8526 28.0909 12.8483H28.3575V8.52194L27.492 8.44575Z" fill="white"/>
</svg>
