<svg width="43" height="43" viewBox="0 0 43 43" fill="none" xmlns="http://www.w3.org/2000/svg">
<path d="M20.1546 0H22.8419C22.948 0.0303288 23.056 0.0533368 23.1652 0.0688616C26.5126 0.319115 29.6441 1.27982 32.4993 3.03747C38.0486 6.45452 41.4664 11.368 42.6606 17.7932C42.8059 18.5742 42.8823 19.3669 42.9906 20.1546V22.8419C42.9562 23.1173 42.9176 23.3928 42.8882 23.6691C42.428 27.9209 40.887 31.7309 38.1728 35.043C34.7978 39.1579 30.4805 41.7091 25.2403 42.664C24.4467 42.8084 23.6405 42.8873 22.8402 42.9999H20.1546C19.6298 42.9352 19.1041 42.879 18.5809 42.8051C14.6121 42.2407 11.0523 40.7291 7.95604 38.1804C3.84617 34.8011 1.28654 30.4897 0.33591 25.2445C0.189789 24.4492 0.110011 23.643 0 22.8419V20.1546C0.033591 19.8792 0.0713809 19.6046 0.101613 19.3283C0.59876 14.7742 2.32114 10.7491 5.35861 7.31445C8.69924 3.53965 12.8595 1.19164 17.836 0.324153C18.6044 0.190629 19.382 0.106652 20.1546 0ZM21.5235 9.21738H21.4983C19.7213 9.21738 17.9435 9.18547 16.1674 9.2283C14.7397 9.26189 13.3659 9.5978 12.1566 10.4099C10.1411 11.7678 9.27028 13.7732 9.22326 16.1077C9.15104 19.6877 9.17791 23.271 9.21822 26.8518C9.23333 28.2526 9.59612 29.5954 10.3939 30.7795C11.7527 32.7949 13.758 33.6658 16.0926 33.7136C19.6726 33.7867 23.2559 33.7766 26.8367 33.7136C28.7984 33.68 30.5704 33.0334 31.9384 31.5302C33.1686 30.1782 33.6691 28.5331 33.7094 26.7578C33.7758 23.8186 33.7817 20.8793 33.7842 17.9401C33.778 17.0726 33.7281 16.206 33.6347 15.3435C33.2988 12.0071 30.9189 9.58688 27.5791 9.30975C25.5561 9.146 23.8689 9.20562 21.5235 9.21738Z" fill="white"/>
<path d="M21.3772 31.5909C19.518 31.538 17.7368 31.5783 15.8809 31.4666C13.2423 31.3079 11.5544 29.6947 11.483 27.0485C11.3822 23.304 11.4116 19.5535 11.483 15.8073C11.5149 14.184 12.2547 12.8404 13.7605 12.0434C14.607 11.5958 15.5383 11.4329 16.4788 11.4312C20.0059 11.4312 23.5329 11.3901 27.0508 11.5018C29.6616 11.5858 31.3588 13.2712 31.4285 15.8846C31.5265 19.6148 31.5265 23.3479 31.4285 27.0838C31.3605 29.6661 29.6482 31.2827 27.0776 31.47C26.1438 31.5371 25.2058 31.5607 24.2686 31.5791C23.3314 31.5976 22.3942 31.5791 21.457 31.5791C21.4595 31.601 21.3781 31.5766 21.3772 31.5909ZM27.7923 21.4682C27.7906 20.2161 27.4179 18.9925 26.7213 17.952C26.0246 16.9115 25.0352 16.1008 23.8781 15.6222C22.721 15.1437 21.448 15.0188 20.2199 15.2633C18.9919 15.5078 17.8638 16.1108 16.9782 16.996C16.0926 17.8813 15.4892 19.0091 15.2442 20.2371C14.9992 21.4651 15.1236 22.7381 15.6017 23.8954C16.0797 25.0527 16.89 26.0424 17.9303 26.7395C18.9705 27.4366 20.1939 27.8097 21.4461 27.8119C22.2801 27.8149 23.1065 27.6529 23.8776 27.3352C24.6488 27.0175 25.3494 26.5503 25.9393 25.9607C26.5292 25.3711 26.9966 24.6706 27.3146 23.8996C27.6326 23.1286 27.7949 22.3023 27.7923 21.4682ZM29.5231 14.8903C29.5238 14.5993 29.4386 14.3146 29.278 14.072C29.1174 13.8293 28.8887 13.6396 28.6206 13.5266C28.3525 13.4136 28.0569 13.3824 27.7711 13.4369C27.4853 13.4914 27.222 13.6292 27.0143 13.833C26.8066 14.0367 26.6638 14.2973 26.6038 14.582C26.5438 14.8667 26.5693 15.1628 26.6771 15.4331C26.785 15.7033 26.9703 15.9356 27.2098 16.1008C27.4493 16.266 27.7323 16.3568 28.0232 16.3616C28.2189 16.3656 28.4134 16.3305 28.5953 16.2583C28.7772 16.1862 28.9429 16.0784 29.0826 15.9414C29.2223 15.8043 29.3332 15.6408 29.4089 15.4603C29.4845 15.2798 29.5233 15.086 29.5231 14.8903Z" fill="white"/>
<path d="M21.4519 17.3633C22.2664 17.362 23.0629 17.6023 23.7406 18.054C24.4183 18.5056 24.9468 19.1482 25.259 19.9004C25.5713 20.6526 25.6534 21.4805 25.4948 22.2793C25.3363 23.0782 24.9442 23.812 24.3683 24.3879C23.7924 24.9637 23.0586 25.3558 22.2598 25.5143C21.4609 25.6729 20.633 25.5908 19.8808 25.2786C19.1287 24.9663 18.4861 24.4378 18.0344 23.7601C17.5828 23.0824 17.3424 22.2859 17.3438 21.4715C17.3455 20.3825 17.7789 19.3386 18.549 18.5685C19.319 17.7985 20.3629 17.3651 21.4519 17.3633Z" fill="white"/>
</svg>
