<svg width="18" height="21" viewBox="0 0 18 21" fill="none" xmlns="http://www.w3.org/2000/svg">
<path d="M4.66471 5.679C4.46997 2.98687 6.59846 1.11332 8.9007 1.00504C11.5892 0.878975 13.7149 3.13838 13.5638 5.679C13.9698 5.679 14.3747 5.679 14.7795 5.679C15.3286 5.679 15.7852 5.89799 16.0854 6.34931C16.245 6.5889 16.3723 6.8879 16.3993 7.17113C16.5036 8.25235 16.5609 9.33801 16.6369 10.4217C16.7177 11.5417 16.805 12.6609 16.885 13.7809C16.9658 14.9085 17.0405 16.0362 17.1177 17.1635C17.148 17.608 17.1945 18.0524 17.203 18.4948C17.2203 19.4241 16.51 20.1466 15.5767 20.168H15.5331C11.2502 20.168 6.96628 20.168 2.68127 20.168C1.84611 20.168 1.18106 19.6338 1.02914 18.8265C0.983885 18.5865 1.00045 18.3312 1.01823 18.0851C1.09904 16.892 1.1851 15.6993 1.27197 14.5065C1.36813 13.1833 1.46874 11.86 1.56611 10.5356C1.64692 9.4374 1.72773 8.33922 1.79359 7.24022C1.81569 6.82131 1.99674 6.42659 2.29983 6.13657C2.60292 5.84654 3.00522 5.68304 3.42471 5.6794C3.83117 5.67738 4.23845 5.679 4.66471 5.679ZM4.70027 7.08184C4.26108 7.08184 3.84693 7.07497 3.43279 7.08507C3.26228 7.08911 3.20693 7.22285 3.19642 7.37477C3.15036 8.04413 3.10444 8.7135 3.05864 9.38286C2.99615 10.2847 2.93258 11.187 2.86794 12.0899C2.78713 13.2318 2.70484 14.3736 2.62107 15.5154C2.55359 16.4447 2.49016 17.3776 2.41581 18.3078C2.38511 18.6876 2.43036 18.7522 2.80693 18.7522H15.3965C15.7783 18.7522 15.8248 18.6892 15.7933 18.313C15.7327 17.5857 15.6838 16.8585 15.6316 16.1312C15.5678 15.2294 15.5068 14.3271 15.4426 13.4241C15.3599 12.2599 15.2765 11.0961 15.1924 9.93276C15.1318 9.08212 15.0719 8.2312 15.0126 7.38002C15.003 7.23941 14.9597 7.09719 14.8021 7.09073C14.3904 7.07578 13.9779 7.08547 13.5496 7.08547V7.3683C13.5496 8.39013 13.5537 9.41195 13.5456 10.4334C13.5487 10.5997 13.5169 10.7649 13.4522 10.9182C13.3181 11.2047 12.9743 11.3425 12.6749 11.2677C12.3516 11.1869 12.1338 10.9008 12.133 10.5348C12.1302 9.46205 12.133 8.38932 12.133 7.31659V7.09355H6.07805V7.34972C6.07805 8.4079 6.07805 9.46609 6.07805 10.5243C6.07805 10.9768 5.77341 11.2867 5.35078 11.2806C4.94674 11.2746 4.65825 10.9505 4.66391 10.5089C4.67603 9.81599 4.69017 9.12266 4.69825 8.42972C4.70431 7.99012 4.70027 7.54568 4.70027 7.08184ZM12.1347 5.66769C12.1613 4.41233 11.6825 3.43656 10.6066 2.82242C9.53989 2.21231 8.44534 2.25595 7.42473 2.93192C6.4623 3.56828 6.04169 4.50445 6.08129 5.66728L12.1347 5.66769Z" fill="#1B1B1A" stroke="#1B1B1A" stroke-width="0.4"/>
</svg>
