<svg width="20" height="20" viewBox="0 0 20 20" fill="none" xmlns="http://www.w3.org/2000/svg">
<path d="M14.524 18.7887C14.1029 18.6978 13.6762 18.6274 13.2606 18.512C12.4065 18.2737 11.6117 17.8908 10.8465 17.449C8.67715 16.1957 6.82324 14.5641 5.1778 12.6867C4.1106 11.4687 3.17817 10.1568 2.45884 8.70171C2.01916 7.80634 1.66918 6.87728 1.54999 5.8783C1.47545 5.25121 1.49566 4.6279 1.80268 4.05429C1.90133 3.87139 2.02461 3.7029 2.16909 3.55354C2.67026 3.03721 3.18954 2.53814 3.69239 2.0235C4.39024 1.30754 5.47387 1.38292 6.13255 2.0235C6.918 2.78831 7.69081 3.56702 8.45984 4.34826C9.13789 5.03684 9.14295 6.06824 8.46995 6.69618C8.31988 6.83155 8.14612 6.93806 7.9574 7.01036C7.48698 7.19609 7.1151 7.47826 6.91168 7.95206C6.77806 8.25752 6.75469 8.59992 6.84556 8.92071C7.09615 9.85861 7.6289 10.6306 8.26906 11.3364C8.93532 12.0705 9.6896 12.6968 10.5854 13.1335C10.9809 13.326 11.3856 13.4965 11.8438 13.4371C12.4625 13.3563 12.9337 13.0581 13.1784 12.4685C13.3296 12.1038 13.5082 11.7694 13.8561 11.5516C14.5076 11.144 15.3107 11.2177 15.886 11.7778C16.6955 12.5668 17.4947 13.366 18.2836 14.1754C18.9284 14.84 18.9044 15.8996 18.2508 16.565C17.734 17.0902 17.2089 17.6066 16.6887 18.1284C16.3202 18.4986 15.8671 18.6855 15.3575 18.755C15.3148 18.7633 15.2726 18.7739 15.2311 18.787L14.524 18.7887Z" stroke="#1B1B1A" stroke-width="1.7"/>
</svg>
