<svg width="19" height="19" viewBox="0 0 19 19" fill="none" xmlns="http://www.w3.org/2000/svg">
<path d="M17.4092 18.625C17.0682 18.5074 16.8387 18.2541 16.5976 18.0118C15.2476 16.654 13.8962 15.2975 12.5431 13.9422C12.4964 13.8951 12.4566 13.8425 12.4087 13.7875C10.2044 15.1762 7.87053 15.5146 5.4005 14.6635C3.60081 14.0419 2.23332 12.8876 1.31575 11.269C-0.469241 8.11727 0.351078 4.26385 3.22393 2.02322C6.26533 -0.349234 10.5774 -0.139396 13.3841 2.51632C15.9752 4.96887 16.6187 9.2282 13.8717 12.4813C13.9067 12.5193 13.9408 12.5593 13.9784 12.5969C15.4103 14.0349 16.8309 15.4833 18.2801 16.9062C18.9129 17.5278 18.6142 18.4348 17.8764 18.6C17.8674 18.6021 17.8609 18.6162 17.8531 18.625H17.4092ZM8.02483 13.1822C11.1367 13.1721 13.6521 10.7425 13.6486 7.74641C13.6435 4.78615 11.186 2.31483 8.01705 2.31399C4.85938 2.31358 2.38502 4.76655 2.38286 7.75892C2.3807 10.7513 4.92507 13.1913 8.02483 13.1822Z" fill="#1B1B1A"/>
</svg>
