<svg width="18" height="24" viewBox="0 0 18 24" fill="none" xmlns="http://www.w3.org/2000/svg">
<path d="M9 0.749939C6.62856 0.74982 4.35291 1.68567 2.66765 3.35408C0.982384 5.02249 0.0237144 7.28862 0 9.65994C0 15.8249 7.93125 22.6874 8.26875 22.9799C8.47252 23.1542 8.73185 23.25 9 23.25C9.26815 23.25 9.52748 23.1542 9.73125 22.9799C10.125 22.6874 18 15.8249 18 9.65994C17.9763 7.28862 17.0176 5.02249 15.3324 3.35408C13.6471 1.68567 11.3714 0.74982 9 0.749939ZM9 20.6062C7.12125 18.8174 2.25 13.8562 2.25 9.65994C2.25 7.86973 2.96116 6.15284 4.22703 4.88697C5.4929 3.6211 7.20979 2.90994 9 2.90994C10.7902 2.90994 12.5071 3.6211 13.773 4.88697C15.0388 6.15284 15.75 7.86973 15.75 9.65994C15.75 13.8224 10.8787 18.8174 9 20.6062Z" fill="#1B1B1A"/>
<path d="M9 5.24994C8.22124 5.24994 7.45996 5.48087 6.81244 5.91353C6.16493 6.34619 5.66025 6.96114 5.36223 7.68062C5.06421 8.40011 4.98623 9.19181 5.13816 9.95561C5.29009 10.7194 5.6651 11.421 6.21577 11.9717C6.76644 12.5223 7.46803 12.8974 8.23183 13.0493C8.99563 13.2012 9.78733 13.1232 10.5068 12.8252C11.2263 12.5272 11.8413 12.0225 12.2739 11.375C12.7066 10.7275 12.9375 9.9662 12.9375 9.18744C12.9375 8.14315 12.5227 7.14163 11.7842 6.40321C11.0458 5.66478 10.0443 5.24994 9 5.24994ZM9 10.8749C8.66625 10.8749 8.33999 10.776 8.06248 10.5905C7.78497 10.4051 7.56868 10.1416 7.44095 9.83322C7.31323 9.52487 7.27981 9.18557 7.34493 8.85822C7.41004 8.53088 7.57076 8.2302 7.80676 7.9942C8.04276 7.75819 8.34344 7.59748 8.67079 7.53236C8.99813 7.46725 9.33743 7.50067 9.64578 7.62839C9.95413 7.75611 10.2177 7.97241 10.4031 8.24991C10.5885 8.52742 10.6875 8.85368 10.6875 9.18744C10.6875 9.63499 10.5097 10.0642 10.1932 10.3807C9.87678 10.6971 9.44755 10.8749 9 10.8749Z" fill="#1B1B1A"/>
</svg>
