<svg width="27" height="23" viewBox="0 0 27 23" fill="none" xmlns="http://www.w3.org/2000/svg">
<path d="M27 7.19793V8.39388C26.9806 8.45074 26.9656 8.50894 26.9549 8.568C26.8699 9.32493 26.6804 10.0669 26.3916 10.7733C25.7065 12.4979 24.6398 13.9838 23.3998 15.3518C20.6735 18.3618 17.4395 20.7571 13.9689 22.8625C13.6541 23.0533 13.3429 23.0415 13.0268 22.8521C10.092 21.0887 7.33958 19.095 4.88573 16.7184C3.37046 15.2477 2.00658 13.6591 1.04405 11.7729C-0.425447 8.89196 -0.375455 6.04707 1.39611 3.30971C2.6248 1.40895 4.40763 0.249767 6.72066 0.0485921C9.17452 -0.16507 11.1763 0.767966 12.7662 2.59172C13.0324 2.89765 13.2591 3.23617 13.5161 3.57609C13.5605 3.51504 13.5971 3.45955 13.6386 3.40821C13.9625 2.99962 14.2491 2.55495 14.6188 2.19145C16.5621 0.277515 18.8822 -0.465445 21.5522 0.292777C24.2568 1.06071 25.8776 2.94551 26.6747 5.54969C26.8374 6.08453 26.8972 6.64852 27 7.19793Z" fill="#1B1B1A"/>
</svg>
