<svg width="20" height="20" viewBox="0 0 20 20" fill="none" xmlns="http://www.w3.org/2000/svg">
<path d="M14.524 18.7886C14.1029 18.6976 13.6762 18.6273 13.2606 18.5119C12.4065 18.2735 11.6117 17.8907 10.8465 17.4489C8.67715 16.1956 6.82324 14.564 5.1778 12.6865C4.1106 11.4686 3.17817 10.1567 2.45884 8.70159C2.01916 7.80622 1.66918 6.87715 1.54999 5.87818C1.47545 5.25108 1.49566 4.62778 1.80268 4.05417C1.90133 3.87127 2.02461 3.70278 2.16909 3.55342C2.67026 3.03709 3.18954 2.53802 3.69239 2.02337C4.39024 1.30741 5.47387 1.3828 6.13255 2.02337C6.918 2.78819 7.69081 3.5669 8.45984 4.34813C9.13789 5.03672 9.14295 6.06812 8.46995 6.69606C8.31988 6.83143 8.14612 6.93794 7.9574 7.01024C7.48698 7.19597 7.1151 7.47814 6.91168 7.95193C6.77806 8.2574 6.75469 8.59979 6.84556 8.92059C7.09615 9.85849 7.6289 10.6305 8.26906 11.3363C8.93532 12.0704 9.6896 12.6966 10.5854 13.1334C10.9809 13.3258 11.3856 13.4964 11.8438 13.437C12.4625 13.3562 12.9337 13.058 13.1784 12.4684C13.3296 12.1037 13.5082 11.7693 13.8561 11.5515C14.5076 11.1438 15.3107 11.2175 15.886 11.7777C16.6955 12.5666 17.4947 13.3658 18.2836 14.1753C18.9284 14.8399 18.9044 15.8995 18.2508 16.5649C17.734 17.0901 17.2089 17.6064 16.6887 18.1282C16.3202 18.4984 15.8671 18.6854 15.3575 18.7549C15.3148 18.7631 15.2726 18.7738 15.2311 18.7869L14.524 18.7886Z" stroke="#1B1B1A" stroke-width="1.7"/>
</svg>
