<svg width="29" height="30" viewBox="0 0 29 30" fill="none" xmlns="http://www.w3.org/2000/svg">
<ellipse cx="14.35" cy="14.6" rx="14.35" ry="14.6" fill="#1B1B1A"/>
<path fill-rule="evenodd" clip-rule="evenodd" d="M14.4219 8C12.7316 8 11.3613 9.37025 11.3613 11.0605V11.6426C8.93212 11.7645 7 13.7727 7 16.2322C7 18.7701 9.05745 20.8276 11.5954 20.8276H17.3991C19.937 20.8276 21.9945 18.7701 21.9945 16.2322C21.9945 13.722 19.9819 11.6819 17.4824 11.6375V11.0605C17.4824 9.37025 16.1121 8 14.4219 8ZM15.9824 11.6367V11.0605C15.9824 10.1987 15.2837 9.5 14.4219 9.5C13.56 9.5 12.8613 10.1987 12.8613 11.0605V11.6367H15.9824ZM11.5954 13.1367H17.3991C19.1086 13.1367 20.4945 14.5226 20.4945 16.2322C20.4945 17.9417 19.1086 19.3276 17.3991 19.3276H11.5954C9.88588 19.3276 8.5 17.9417 8.5 16.2322C8.5 14.5226 9.88587 13.1367 11.5954 13.1367Z" fill="white"/>
</svg>
