<svg width="29" height="30" viewBox="0 0 29 30" fill="none" xmlns="http://www.w3.org/2000/svg">
<ellipse cx="14.35" cy="14.6" rx="14.35" ry="14.6" fill="white"/>
<path fill-rule="evenodd" clip-rule="evenodd" d="M14.4199 7C12.7296 7 11.3594 8.37025 11.3594 10.0605V10.6427C8.93109 10.7655 7 12.7733 7 15.2322C7 17.7701 9.05745 19.8276 11.5954 19.8276H17.3991C19.937 19.8276 21.9945 17.7701 21.9945 15.2322C21.9945 12.7214 19.9809 10.6808 17.4804 10.6374V10.0605C17.4804 8.37025 16.1102 7 14.4199 7ZM15.9804 10.6367V10.0605C15.9804 9.19867 15.2818 8.5 14.4199 8.5C13.558 8.5 12.8594 9.19867 12.8594 10.0605V10.6367H15.9804ZM11.5954 12.1367H17.3991C19.1086 12.1367 20.4945 13.5226 20.4945 15.2322C20.4945 16.9417 19.1086 18.3276 17.3991 18.3276H11.5954C9.88588 18.3276 8.5 16.9417 8.5 15.2322C8.5 13.5226 9.88587 12.1367 11.5954 12.1367Z" fill="#1B1B1A"/>
</svg>
