<svg width="16" height="14" viewBox="0 0 16 14" fill="none" xmlns="http://www.w3.org/2000/svg">
<path fill-rule="evenodd" clip-rule="evenodd" d="M8.10936 0.556519C6.41908 0.556519 5.04883 1.92676 5.04883 3.61705V4.1991C2.61962 4.32099 0.6875 6.32919 0.6875 8.78867C0.6875 11.3267 2.74495 13.3841 5.28294 13.3841H11.0866C13.6245 13.3841 15.682 11.3267 15.682 8.78867C15.682 6.27852 13.6694 4.23843 11.1699 4.19398V3.61705C11.1699 1.92677 9.79964 0.556519 8.10936 0.556519ZM9.66989 4.19324V3.61705C9.66989 2.75519 8.97122 2.05652 8.10936 2.05652C7.2475 2.05652 6.54883 2.75519 6.54883 3.61705V4.19324H9.66989ZM5.28293 5.69324H11.0866C12.7961 5.69324 14.182 7.07911 14.182 8.78867C14.182 10.4982 12.7961 11.8841 11.0866 11.8841H5.28294C3.57338 11.8841 2.1875 10.4982 2.1875 8.78867C2.1875 7.07911 3.57337 5.69324 5.28293 5.69324Z" fill="white"/>
<path fill-rule="evenodd" clip-rule="evenodd" d="M8.10897 0.706525C6.50153 0.706525 5.19844 2.00961 5.19844 3.61706V4.34177L5.05595 4.34891C2.70617 4.46682 0.837109 6.40952 0.837109 8.78868C0.837109 11.2438 2.8274 13.2341 5.28255 13.2341H11.0862C13.5413 13.2341 15.5316 11.2438 15.5316 8.78868C15.5316 6.36048 13.5847 4.38696 11.1668 4.34396L11.0195 4.34134V3.61706C11.0195 2.00961 9.71641 0.706525 8.10897 0.706525ZM4.89844 3.61706C4.89844 1.84393 6.33584 0.406525 8.10897 0.406525C9.8821 0.406525 11.3195 1.84393 11.3195 3.61706V4.04888C13.832 4.17056 15.8316 6.24608 15.8316 8.78868C15.8316 11.4095 13.707 13.5341 11.0862 13.5341H5.28255C2.66172 13.5341 0.537109 11.4095 0.537109 8.78868C0.537109 6.29715 2.45717 4.25417 4.89844 4.05857V3.61706ZM6.39844 3.61706C6.39844 2.67236 7.16427 1.90652 8.10897 1.90652C9.05367 1.90652 9.8195 2.67236 9.8195 3.61706V4.34324H6.39844V3.61706ZM8.10897 2.20652C7.32995 2.20652 6.69844 2.83804 6.69844 3.61706V4.04324H9.5195V3.61706C9.5195 2.83804 8.88798 2.20652 8.10897 2.20652ZM2.03711 8.78868C2.03711 6.99627 3.49014 5.54324 5.28254 5.54324H11.0862C12.8786 5.54324 14.3316 6.99627 14.3316 8.78868C14.3316 10.5811 12.8786 12.0341 11.0862 12.0341H5.28255C3.49014 12.0341 2.03711 10.5811 2.03711 8.78868ZM5.28254 5.84324C3.65583 5.84324 2.33711 7.16196 2.33711 8.78868C2.33711 10.4154 3.65583 11.7341 5.28255 11.7341H11.0862C12.7129 11.7341 14.0316 10.4154 14.0316 8.78868C14.0316 7.16196 12.7129 5.84324 11.0862 5.84324H5.28254Z" fill="white"/>
</svg>
