<svg width="21" height="22" viewBox="0 0 21 22" fill="none" xmlns="http://www.w3.org/2000/svg">
<path d="M5.84231 18.9033L5.83757 18.9015C5.67854 18.82 5.54914 18.6906 5.46765 18.5315L5.46581 18.5268C5.4635 18.5203 5.4584 18.5048 5.45186 18.4771C5.43801 18.4182 5.42037 18.3161 5.40614 18.1419C5.37543 17.766 5.37387 17.2618 5.37387 16.4286V6.81429H15.6501V16.4286C15.6501 17.2618 15.6485 17.766 15.6178 18.1419C15.6036 18.3161 15.5859 18.4182 15.5721 18.4771C15.5655 18.5048 15.5604 18.5203 15.5581 18.5268L15.5563 18.5315C15.4748 18.6906 15.3454 18.82 15.1863 18.9015L15.1816 18.9033C15.1751 18.9056 15.1597 18.9107 15.1319 18.9172C15.0731 18.9311 14.971 18.9487 14.7967 18.963C14.4209 18.9937 13.9166 18.9952 13.0834 18.9952H7.94053C7.10729 18.9952 6.60306 18.9937 6.22722 18.963C6.05296 18.9487 5.95087 18.9311 5.89203 18.9172C5.86428 18.9107 5.84879 18.9056 5.84231 18.9033ZM15.5562 18.5318C15.5561 18.5321 15.5561 18.532 15.5562 18.5317L15.5562 18.5318ZM15.557 18.53L15.5571 18.53L15.5571 18.5299C15.5571 18.53 15.5571 18.53 15.557 18.53ZM15.1866 18.9014L15.1865 18.9014L15.1866 18.9014ZM5.83741 18.9014L5.8373 18.9014L5.83741 18.9014ZM19.5596 4.70952H15.8969C15.8925 3.75368 15.8649 3.18968 15.6726 2.72549C15.3724 2.00091 14.7968 1.42523 14.0722 1.1251C13.7941 1.0099 13.4831 0.954722 12.9555 0.92732C12.4294 0.9 11.6782 0.9 10.5164 0.9H10.512H10.5107C9.84592 0.9 9.09501 0.9 8.44447 0.927274C8.11899 0.940919 7.81702 0.96145 7.56251 0.992488C7.31037 1.02324 7.09634 1.06521 6.95174 1.1251C6.22716 1.42523 5.65148 2.00091 5.35135 2.72549C5.15908 3.18968 5.13144 3.75368 5.12707 4.70952H1.46434C0.88313 4.70952 0.411963 5.18069 0.411963 5.7619C0.411963 6.34312 0.88313 6.81429 1.46434 6.81429H3.26911V16.4286V16.4333C3.26911 17.2294 3.26911 17.8328 3.30836 18.3133C3.3478 18.7959 3.42733 19.1633 3.59141 19.4854C3.87493 20.0418 4.32731 20.4942 4.88373 20.7777C5.20577 20.9418 5.57321 21.0213 6.05583 21.0607C6.53632 21.1 7.13971 21.1 7.93579 21.1H7.94053H13.0834H13.0881C13.8842 21.1 14.4876 21.1 14.9681 21.0607C15.4507 21.0213 15.8182 20.9418 16.1402 20.7777C16.6966 20.4942 17.149 20.0418 17.4325 19.4854C17.5966 19.1633 17.6761 18.7959 17.7156 18.3133C17.7548 17.8328 17.7548 17.2294 17.7548 16.4333V16.4286V6.81429H19.5596C20.1408 6.81429 20.612 6.34312 20.612 5.7619C20.612 5.18069 20.1408 4.70952 19.5596 4.70952ZM13.792 4.70952H7.23192C7.23369 4.3395 7.23885 4.07423 7.25355 3.85888C7.27066 3.60807 7.29577 3.53213 7.29661 3.52924C7.38308 3.32175 7.548 3.1568 7.75546 3.07033C7.75826 3.06953 7.83414 3.04442 8.08513 3.0273C8.39924 3.00587 9.8173 3.00476 10.512 3.00476C11.2066 3.00476 12.6247 3.00587 12.9388 3.0273C13.1896 3.04441 13.2656 3.06953 13.2684 3.07036C13.4759 3.15683 13.6409 3.32175 13.7273 3.52921C13.7282 3.53206 13.7533 3.60798 13.7704 3.85888C13.7851 4.07423 13.7902 4.3395 13.792 4.70952Z" fill="#A9A9A9" stroke="#A9A9A9" stroke-width="0.2"/>
</svg>
