<svg width="18" height="24" viewBox="0 0 18 24" fill="none" xmlns="http://www.w3.org/2000/svg">
<path d="M9 0.75C6.62856 0.749881 4.35291 1.68573 2.66765 3.35414C0.982384 5.02255 0.0237144 7.28868 0 9.66C0 15.825 7.93125 22.6875 8.26875 22.98C8.47252 23.1543 8.73185 23.2501 9 23.2501C9.26815 23.2501 9.52748 23.1543 9.73125 22.98C10.125 22.6875 18 15.825 18 9.66C17.9763 7.28868 17.0176 5.02255 15.3324 3.35414C13.6471 1.68573 11.3714 0.749881 9 0.75ZM9 20.6062C7.12125 18.8175 2.25 13.8562 2.25 9.66C2.25 7.86979 2.96116 6.1529 4.22703 4.88703C5.4929 3.62116 7.20979 2.91 9 2.91C10.7902 2.91 12.5071 3.62116 13.773 4.88703C15.0388 6.1529 15.75 7.86979 15.75 9.66C15.75 13.8225 10.8787 18.8175 9 20.6062Z" fill="#1B1B1A"/>
<path d="M9 5.25C8.22124 5.25 7.45996 5.48093 6.81244 5.91359C6.16493 6.34625 5.66025 6.9612 5.36223 7.68068C5.06421 8.40017 4.98623 9.19187 5.13816 9.95567C5.29009 10.7195 5.6651 11.4211 6.21577 11.9717C6.76644 12.5224 7.46803 12.8974 8.23183 13.0493C8.99563 13.2013 9.78733 13.1233 10.5068 12.8253C11.2263 12.5273 11.8413 12.0226 12.2739 11.3751C12.7066 10.7275 12.9375 9.96626 12.9375 9.1875C12.9375 8.14321 12.5227 7.14169 11.7842 6.40327C11.0458 5.66484 10.0443 5.25 9 5.25ZM9 10.875C8.66625 10.875 8.33999 10.776 8.06248 10.5906C7.78497 10.4052 7.56868 10.1416 7.44095 9.83328C7.31323 9.52493 7.27981 9.18563 7.34493 8.85828C7.41004 8.53094 7.57076 8.23026 7.80676 7.99426C8.04276 7.75826 8.34344 7.59754 8.67079 7.53242C8.99813 7.46731 9.33743 7.50073 9.64578 7.62845C9.95413 7.75618 10.2177 7.97247 10.4031 8.24998C10.5885 8.52748 10.6875 8.85374 10.6875 9.1875C10.6875 9.63505 10.5097 10.0643 10.1932 10.3807C9.87678 10.6972 9.44755 10.875 9 10.875Z" fill="#1B1B1A"/>
</svg>
