<svg width="44" height="44" viewBox="0 0 44 44" fill="none" xmlns="http://www.w3.org/2000/svg">
<path d="M41.0688 44C40.2467 43.7164 39.6934 43.1059 39.1119 42.5215C35.8573 39.248 32.5989 35.9775 29.3367 32.7101C29.2242 32.5964 29.1283 32.4697 29.0126 32.3369C23.6983 35.6852 18.0714 36.5009 12.1163 34.4491C7.77729 32.9505 4.48033 30.1674 2.26812 26.265C-2.03543 18.6663 -0.057674 9.37587 6.86865 3.9738C14.2014 -1.7461 24.5976 -1.24019 31.3645 5.16264C37.6114 11.0756 39.163 21.3447 32.5399 29.1878C32.6243 29.2793 32.7066 29.3759 32.7973 29.4664C36.2495 32.9334 39.6746 36.4254 43.1685 39.8562C44.694 41.3548 43.974 43.5414 42.1953 43.9397C42.1734 43.9447 42.1578 43.9789 42.139 44H41.0688ZM18.4434 30.8775C25.946 30.8534 32.0105 24.9957 32.0022 17.7722C31.9897 10.6351 26.0648 4.67684 18.4247 4.67483C10.8117 4.67383 4.84608 10.5878 4.84087 17.8023C4.83566 25.0168 10.97 30.8997 18.4434 30.8775Z" fill="#1B1B1A"/>
</svg>
